<?xml version="1.0" standalone="no"?>
<!DOCTYPE svg PUBLIC "-//W3C//DTD SVG 20010904//EN"
 "http://www.w3.org/TR/2001/REC-SVG-20010904/DTD/svg10.dtd">
<svg version="1.0" xmlns="http://www.w3.org/2000/svg"
 width="700.000000pt" height="700.000000pt" viewBox="0 0 700.000000 700.000000"
 preserveAspectRatio="xMidYMid meet">
<metadata>
Created by potrace 1.11, written by Peter Selinger 2001-2013
</metadata>
<g transform="translate(0.000000,700.000000) scale(0.100000,-0.100000)"
fill="#000000" stroke="none">
<path d="M1099 5026 c-2 -2 -33 -7 -69 -10 -95 -9 -150 -18 -235 -39 -288 -70
-469 -180 -593 -360 -46 -68 -100 -185 -117 -252 -47 -191 -38 -461 21 -635
85 -250 291 -435 587 -524 45 -14 100 -28 122 -32 22 -3 43 -8 46 -10 10 -5
129 -23 214 -31 178 -17 571 -4 707 23 13 2 48 8 79 14 85 16 206 58 290 101
174 90 300 233 370 418 21 56 55 202 54 231 0 13 -53 15 -407 18 -323 2 -408
0 -408 -10 0 -7 -13 -40 -29 -73 -26 -56 -91 -128 -138 -154 -114 -61 -321
-72 -458 -26 -169 58 -264 206 -265 410 0 44 2 94 6 110 3 17 7 35 8 40 38
182 188 283 428 290 169 4 303 -32 372 -101 24 -25 77 -113 76 -129 -1 -49
-36 -45 411 -45 386 0 410 1 405 18 -3 9 -8 31 -11 47 -27 155 -106 314 -208
418 -139 142 -351 234 -627 272 -25 3 -61 8 -80 12 -39 6 -545 14 -551 9z"/>
<path d="M3817 5014 c-1 -1 -63 -4 -137 -8 -129 -7 -152 -9 -245 -21 -281 -37
-440 -110 -553 -254 -56 -70 -102 -175 -126 -282 l-5 -25 364 0 364 0 17 37
c47 104 202 170 403 170 251 1 431 -76 431 -183 0 -39 -38 -88 -83 -108 -46
-20 -99 -28 -257 -35 -286 -13 -342 -16 -430 -20 -138 -6 -271 -15 -300 -20
-14 -2 -45 -7 -70 -10 -131 -17 -327 -90 -390 -144 -139 -119 -187 -234 -176
-421 14 -238 133 -395 354 -469 145 -49 275 -65 517 -65 201 0 331 11 480 39
48 9 187 56 229 77 41 21 132 83 154 105 18 17 18 18 20 -20 2 -32 6 -57 17
-109 l6 -27 365 0 c338 1 365 2 358 17 -26 63 -44 116 -50 144 -4 18 -8 267
-9 553 -3 492 -4 524 -24 598 -80 302 -312 436 -818 473 -76 5 -401 12 -406 8z
m534 -1059 c-4 -106 -25 -158 -89 -223 -75 -76 -153 -113 -314 -148 -13 -3
-76 -8 -140 -11 -180 -9 -301 23 -354 93 -27 35 -41 96 -30 137 13 52 100 110
187 122 24 3 55 8 69 10 14 2 57 7 95 10 196 18 524 60 532 69 2 2 13 3 25 2
20 -1 22 -6 19 -61z"/>
<path d="M6658 5015 c-2 -1 -25 -5 -53 -9 -211 -25 -421 -149 -572 -339 l-30
-37 1 161 c1 88 -2 165 -5 170 -3 5 -148 8 -349 7 l-344 -3 0 -870 -1 -870
361 -3 360 -2 1 352 c1 364 4 419 27 485 78 222 265 345 526 346 110 0 170 -7
298 -38 50 -12 92 -19 93 -16 4 32 3 635 -1 642 -4 5 -26 11 -50 14 -50 7
-257 14 -262 10z"/>
<path d="M4 3758 c7 -172 9 -191 32 -302 97 -479 413 -875 884 -1106 177 -87
424 -155 600 -165 52 -3 96 -8 98 -10 3 -2 4 -58 4 -125 l-1 -121 52 43 c29
23 59 49 68 58 9 8 40 35 70 60 87 74 210 179 269 230 30 26 71 61 90 77 19
15 44 37 56 49 l23 20 -47 40 c-25 21 -114 97 -197 168 -82 70 -175 149 -204
175 -30 25 -80 67 -110 94 -30 26 -57 47 -61 47 -4 0 -8 -49 -8 -110 0 -60 -3
-113 -6 -118 -8 -13 -238 -4 -351 13 -16 3 -47 7 -68 10 -129 18 -337 77 -455
131 -261 117 -460 300 -591 544 -51 96 -108 267 -123 370 -20 131 -31 95 -24
-72z"/>
<path d="M2995 2888 c-220 -26 -351 -153 -359 -347 -9 -229 112 -362 359 -397
73 -11 231 -8 304 6 166 30 275 129 296 270 l6 40 -155 0 -154 0 -19 -37 c-26
-49 -67 -73 -136 -77 -70 -4 -125 19 -158 65 -20 29 -24 46 -24 110 0 90 13
118 67 149 30 17 56 23 102 22 86 0 133 -22 153 -69 l17 -38 153 0 154 0 -6
35 c-16 88 -79 177 -155 215 -101 51 -280 72 -445 53z"/>
<path d="M3927 2879 c-173 -35 -262 -114 -295 -264 -7 -32 -6 -146 1 -192 18
-121 91 -207 210 -249 116 -41 303 -50 457 -21 59 11 141 50 182 87 83 72 123
215 100 356 -34 202 -169 292 -452 298 -81 1 -146 -3 -203 -15z m275 -213 c49
-23 72 -73 71 -153 0 -113 -56 -167 -169 -166 -113 1 -165 55 -165 171 -1 117
57 171 176 167 28 -1 67 -10 87 -19z"/>
<path d="M5132 2874 c-56 -15 -134 -62 -151 -92 -8 -13 -10 -5 -11 36 l0 53
-152 -3 -153 -3 0 -350 0 -350 155 0 155 -1 5 218 c5 216 5 218 30 242 43 43
125 39 149 -7 7 -14 12 -99 14 -237 l2 -215 152 0 151 -1 1 209 c1 178 4 213
18 238 16 27 53 47 81 43 6 -1 20 -2 30 -3 10 0 27 -7 38 -15 18 -13 19 -31
24 -243 l5 -228 155 0 155 0 2 272 2 271 -27 54 c-20 38 -40 61 -73 81 -57 35
-83 40 -184 40 -95 0 -159 -24 -217 -81 -23 -22 -38 -30 -38 -22 -1 29 -75 85
-125 95 -65 13 -142 12 -193 -1z"/>
</g>
</svg>
