<?xml version="1.0" standalone="no"?>
<!DOCTYPE svg PUBLIC "-//W3C//DTD SVG 20010904//EN" "http://www.w3.org/TR/2001/REC-SVG-20010904/DTD/svg10.dtd">
<svg version="1.0" xmlns="http://www.w3.org/2000/svg" width="1760.000000pt" height="1760.000000pt" viewBox="0 0 1760.000000 1760.000000" preserveAspectRatio="xMidYMid meet">
    <metadata>
Created by potrace 1.11, written by Peter Selinger 2001-2013
</metadata>
    <g transform="translate(0.000000,1760.000000) scale(0.100000,-0.100000)" fill="#000000" stroke="none">
        <path d="M2988 12625 c-2 -2 -55 -6 -118 -10 -121 -7 -131 -8 -250 -20 -41 -5
-85 -8 -97 -9 -13 0 -23 -2 -23 -5 0 -4 -17 -6 -38 -7 -20 0 -57 -4 -82 -8
-25 -4 -58 -9 -75 -12 -16 -2 -55 -9 -85 -15 -30 -6 -66 -12 -80 -14 -14 -2
-34 -6 -45 -9 -11 -2 -54 -12 -95 -21 -89 -20 -84 -18 -140 -34 -25 -7 -52
-14 -60 -16 -27 -6 -254 -84 -295 -101 -22 -10 -46 -19 -53 -20 -23 -4 -300
-145 -344 -174 -24 -16 -47 -30 -51 -30 -4 0 -13 -5 -20 -10 -7 -6 -48 -37
-92 -69 -44 -33 -90 -69 -102 -80 -12 -12 -24 -21 -27 -21 -19 0 -219 -218
-292 -320 -136 -188 -264 -472 -308 -685 -2 -5 -8 -35 -14 -65 -7 -30 -14 -66
-16 -80 -3 -14 -5 -25 -6 -25 -1 0 -3 -15 -15 -110 -19 -155 -25 -492 -12
-635 7 -77 17 -161 22 -185 2 -11 7 -42 11 -70 3 -27 10 -58 15 -67 6 -10 8
-18 5 -18 -3 0 9 -48 25 -107 16 -60 31 -115 33 -123 3 -8 10 -28 17 -45 6
-16 13 -35 14 -41 9 -43 118 -261 166 -332 16 -24 29 -46 29 -51 0 -4 11 -20
24 -37 13 -16 47 -58 76 -94 85 -107 162 -184 299 -297 44 -37 121 -93 127
-93 2 0 10 -5 17 -10 21 -19 121 -80 139 -86 10 -3 18 -10 18 -15 0 -5 8 -9
19 -9 10 0 29 -8 42 -19 13 -10 35 -22 49 -26 14 -4 32 -13 40 -20 8 -8 17
-13 20 -13 3 1 21 -6 40 -15 58 -27 114 -50 126 -52 7 -2 50 -17 95 -33 46
-17 104 -36 129 -43 25 -7 47 -13 50 -14 3 -1 25 -8 50 -15 25 -7 47 -14 50
-15 24 -6 69 -16 85 -19 11 -2 38 -9 60 -15 22 -5 56 -13 75 -16 19 -3 42 -8
50 -10 8 -3 31 -7 50 -10 19 -2 46 -7 60 -9 14 -3 42 -7 63 -10 20 -3 52 -8
70 -11 17 -3 55 -7 82 -10 28 -2 50 -5 50 -5 0 -4 38 -8 125 -15 52 -4 113 -9
135 -11 209 -17 749 -23 985 -10 204 11 361 23 420 31 19 3 58 7 85 11 28 3
64 7 80 9 41 5 214 34 245 40 63 14 145 27 146 23 0 -1 8 3 17 11 10 7 17 11
17 9 0 -3 26 1 58 9 31 7 66 16 77 18 11 3 67 21 125 40 58 20 110 37 115 39
6 2 19 6 30 10 11 5 34 13 50 19 50 17 235 110 312 155 110 65 259 180 348
269 123 122 148 152 209 238 31 44 60 85 64 90 4 6 11 17 15 25 4 8 17 31 29
50 46 75 154 317 162 362 2 13 32 107 43 138 3 8 7 22 8 30 2 8 12 60 24 114
12 55 23 115 26 135 19 142 20 131 -11 131 -42 1 -1996 1 -2016 1 -10 -1 -18
-9 -18 -18 0 -20 -51 -175 -60 -183 -4 -3 -16 -26 -28 -51 -48 -99 -149 -211
-268 -295 -25 -18 -140 -77 -154 -80 -3 0 -16 -5 -30 -11 -42 -18 -162 -51
-205 -57 -22 -3 -51 -8 -65 -11 -79 -18 -410 -26 -500 -13 -30 5 -69 10 -85
13 -17 2 -62 14 -100 26 -39 13 -75 23 -81 25 -6 1 -44 17 -86 36 -103 48
-236 138 -301 203 -53 53 -136 168 -157 216 -5 13 -14 31 -19 39 -41 66 -95
248 -106 357 -17 156 3 454 36 540 5 13 7 23 5 23 -3 0 5 24 15 53 11 28 21
56 22 62 4 20 78 158 92 172 8 8 15 18 15 22 0 10 121 134 154 156 15 11 33
25 40 31 21 19 164 92 218 110 82 28 220 62 278 69 210 25 534 25 640 -1 14
-3 36 -8 50 -10 58 -11 203 -54 245 -73 29 -13 60 -23 61 -19 1 2 10 -4 20
-13 11 -9 39 -27 64 -41 52 -30 135 -107 170 -158 13 -19 27 -37 30 -40 11
-11 30 -51 30 -65 0 -8 3 -15 8 -15 7 0 30 -57 37 -95 2 -11 8 -42 13 -70 6
-27 8 -53 6 -57 -3 -5 10 -8 28 -8 39 -1 1997 -1 2016 0 9 0 11 11 8 38 -14
91 -16 108 -22 124 -2 9 -6 25 -8 35 -11 55 -49 190 -71 254 -15 41 -27 79
-29 84 -2 6 -9 24 -16 40 -7 17 -14 32 -15 35 0 3 -11 28 -24 55 -13 28 -25
56 -27 63 -1 8 -10 22 -18 31 -9 10 -16 21 -16 25 0 12 -73 130 -82 134 -4 2
-8 8 -8 13 0 10 -61 95 -110 154 -40 48 -202 208 -238 235 -19 14 -39 30 -46
37 -11 10 -153 104 -211 140 -44 27 -245 124 -320 154 -67 26 -95 36 -155 54
-3 1 -12 4 -20 7 -45 17 -217 64 -300 82 -121 26 -236 48 -324 61 -21 3 -48 7
-60 10 -12 2 -46 7 -76 10 -30 3 -75 8 -100 11 -138 15 -215 22 -325 30 -84 6
-891 14 -897 9z" />
        <path d="M17017 12594 c-1 -1 -56 -4 -121 -5 -104 -2 -184 -11 -326 -35 -56
-9 -64 -11 -80 -16 -13 -4 -99 -27 -164 -43 -23 -6 -101 -33 -141 -50 -16 -7
-41 -16 -54 -20 -22 -7 -236 -114 -279 -140 -115 -69 -263 -178 -330 -242 -12
-13 -25 -23 -27 -23 -15 0 -197 -198 -265 -290 -14 -18 -31 -39 -37 -46 -7 -7
-13 -17 -13 -23 0 -6 -6 -11 -14 -11 -11 0 -13 69 -12 410 1 267 -2 410 -9
411 -33 4 -1738 3 -1744 -1 -12 -9 -9 -4310 3 -4311 6 0 415 -2 908 -2 l898
-2 0 125 c1 756 8 1681 13 1705 4 17 12 59 18 95 7 36 16 71 22 78 5 6 7 12 4
12 -4 0 0 18 8 40 8 22 14 41 14 43 -1 12 98 227 110 237 3 3 23 31 45 63 110
164 324 330 521 406 33 13 69 27 80 31 11 5 38 14 60 20 22 6 47 14 55 17 8 3
22 7 30 8 8 1 51 9 95 17 44 9 87 16 95 17 8 0 42 4 75 7 114 13 365 6 465
-11 14 -3 49 -8 79 -11 30 -3 64 -8 75 -10 12 -2 37 -7 56 -10 68 -10 186 -35
285 -60 55 -14 107 -27 115 -29 8 -2 27 -6 42 -10 l27 -7 0 811 0 811 -22 -1
c-22 0 -59 5 -107 15 -30 6 -138 15 -270 22 -52 2 -114 6 -138 7 -23 2 -43 2
-45 1z" />
        <path d="M9466 12583 c-1 -2 -50 -5 -107 -8 -93 -5 -153 -8 -309 -20 -66 -4
-200 -16 -235 -20 -44 -5 -182 -23 -225 -30 -14 -2 -43 -6 -65 -10 -23 -3 -52
-7 -65 -10 -14 -3 -50 -10 -80 -16 -30 -6 -68 -13 -85 -15 -16 -3 -37 -7 -45
-10 -8 -3 -26 -8 -40 -10 -14 -3 -50 -12 -80 -21 -30 -9 -60 -17 -67 -19 -104
-20 -364 -137 -471 -211 -67 -46 -178 -138 -217 -179 -65 -69 -154 -184 -190
-246 -56 -96 -85 -151 -85 -164 0 -8 -4 -14 -8 -14 -5 0 -13 -15 -19 -32 -6
-18 -24 -70 -41 -115 -16 -46 -28 -83 -25 -83 3 0 1 -6 -5 -12 -12 -16 -55
-198 -48 -206 8 -8 1821 -7 1834 1 6 4 14 21 17 38 19 87 121 211 235 284 89
58 238 121 335 141 196 40 273 48 490 47 193 -1 335 -11 418 -29 38 -9 54 -12
92 -18 57 -10 188 -48 200 -58 5 -4 16 -8 25 -8 22 0 160 -72 196 -102 96 -79
132 -141 135 -233 2 -68 -17 -117 -70 -177 -51 -57 -110 -91 -215 -123 -117
-35 -173 -42 -401 -50 -77 -2 -183 -7 -235 -10 -52 -3 -144 -8 -205 -10 -116
-5 -268 -12 -450 -21 -60 -3 -148 -7 -195 -9 -195 -8 -360 -16 -440 -20 -47
-3 -121 -8 -165 -10 -101 -6 -195 -13 -265 -21 -30 -3 -73 -8 -95 -10 -22 -1
-51 -5 -65 -8 -14 -3 -43 -8 -65 -11 -49 -6 -79 -11 -175 -31 -41 -9 -86 -18
-99 -20 -14 -3 -28 -7 -31 -9 -4 -2 -21 -7 -39 -10 -42 -7 -261 -80 -320 -106
-215 -95 -351 -186 -485 -323 -86 -89 -115 -130 -186 -266 -24 -45 -71 -177
-75 -213 -2 -15 -6 -31 -9 -35 -26 -43 -34 -411 -10 -524 2 -13 7 -39 9 -58 7
-43 24 -118 35 -145 4 -11 13 -38 19 -60 12 -37 28 -75 69 -165 9 -19 22 -41
29 -48 7 -7 13 -20 13 -28 0 -8 4 -14 8 -14 5 0 13 -8 18 -19 24 -50 145 -180
229 -246 71 -56 113 -85 124 -85 5 0 11 -3 13 -8 3 -7 194 -105 211 -108 4 -1
9 -3 12 -4 3 -1 8 -3 13 -5 4 -1 21 -7 37 -14 30 -13 173 -58 210 -66 11 -3
34 -8 50 -12 17 -4 32 -7 35 -8 3 -1 19 -4 35 -8 17 -4 41 -9 55 -12 14 -3 36
-7 50 -9 14 -3 43 -8 65 -11 22 -3 51 -8 65 -10 36 -6 117 -15 175 -20 28 -2
86 -7 130 -12 95 -9 807 -9 950 0 177 12 249 17 290 22 22 3 56 7 75 9 30 3
79 10 155 21 11 1 40 6 65 10 25 5 54 9 65 11 11 1 20 3 20 4 0 1 14 4 30 6
62 11 70 12 70 14 0 1 11 4 24 6 89 16 358 99 375 115 6 5 16 9 23 9 13 0 175
78 243 117 39 23 132 84 140 93 3 3 30 24 60 46 30 23 67 53 83 67 15 14 28
25 28 24 2 -3 5 -27 13 -103 3 -34 11 -86 17 -115 5 -30 12 -67 14 -84 2 -16
11 -48 18 -70 12 -34 18 -40 44 -41 17 -1 35 -4 41 -8 6 -3 13 -3 16 2 4 6 60
8 92 1 5 -1 11 0 14 1 16 6 62 5 66 -2 3 -5 10 -6 15 -2 14 8 80 11 85 3 2 -4
22 -3 44 1 23 4 40 3 40 -2 0 -5 5 -6 11 -3 16 11 69 12 69 3 0 -5 8 -5 18 0
14 7 86 8 102 2 3 -1 10 -1 15 0 22 5 124 2 134 -5 6 -3 11 -2 11 2 0 9 20 9
83 0 15 -2 27 -1 27 3 0 3 17 5 38 2 20 -2 42 -3 47 -3 6 0 27 1 48 3 20 3 37
0 37 -4 0 -5 5 -6 11 -3 16 11 69 12 69 3 0 -5 8 -5 18 0 14 7 86 8 102 2 3
-1 10 -1 15 0 22 5 124 2 134 -5 6 -3 11 -2 11 2 0 5 15 7 33 5 17 -2 39 -3
47 -3 8 0 30 1 48 3 17 2 32 0 32 -4 0 -5 8 -5 18 -1 20 9 143 10 158 0 6 -3
16 -2 24 3 7 4 19 6 27 3 19 -7 17 -3 -23 73 -66 124 -109 261 -131 419 -3 22
-6 580 -8 1240 -1 660 -4 1211 -8 1225 -3 14 -8 48 -11 75 -10 86 -14 108 -31
175 -25 100 -31 122 -48 165 -8 22 -20 56 -27 75 -33 89 -122 238 -195 325
-60 71 -74 86 -145 145 -36 30 -66 58 -68 63 -2 4 -8 7 -13 7 -9 0 -68 38 -79
51 -7 9 -257 130 -272 133 -7 1 -17 4 -23 7 -5 4 -41 16 -80 28 -38 13 -79 26
-90 31 -21 9 -99 29 -125 33 -8 2 -19 5 -25 9 -5 3 -32 10 -60 14 -56 9 -64
11 -67 14 -2 1 -12 3 -23 5 -11 2 -36 6 -55 9 -19 3 -46 8 -60 12 -14 3 -35 7
-47 9 -13 2 -40 6 -60 9 -21 3 -60 9 -88 12 -27 3 -58 8 -67 9 -19 4 -120 15
-194 21 -54 4 -120 9 -269 20 -99 7 -1082 13 -1089 7z m1521 -2610 c-5 -161
-17 -226 -58 -330 -12 -29 -26 -53 -31 -53 -5 0 -7 -4 -4 -9 3 -5 -1 -14 -9
-21 -8 -7 -15 -17 -15 -22 0 -5 -6 -15 -12 -23 -7 -7 -24 -28 -38 -46 -43 -56
-135 -137 -210 -185 -69 -43 -170 -95 -170 -86 0 4 -4 2 -8 -4 -7 -12 -223
-89 -272 -98 -14 -2 -25 -5 -25 -6 0 -2 -24 -7 -69 -15 -21 -4 -48 -9 -60 -11
-11 -2 -37 -7 -56 -9 -19 -3 -46 -8 -59 -11 -13 -3 -51 -7 -85 -10 -34 -2 -86
-6 -116 -9 -137 -12 -487 -4 -513 12 -5 3 -23 7 -40 9 -97 11 -232 62 -317
118 -78 51 -163 161 -173 222 -1 10 -5 24 -8 29 -4 6 -6 44 -5 86 2 60 8 88
29 132 73 148 286 256 556 282 25 3 66 7 91 10 58 6 149 14 227 20 34 3 79 7
100 10 21 3 65 7 98 10 33 3 78 8 100 10 22 3 65 7 95 10 30 3 69 7 85 9 49 7
149 19 170 21 46 4 161 18 180 21 11 3 45 7 75 10 30 2 62 7 70 9 16 4 106 16
155 21 17 1 30 3 30 4 0 1 14 3 30 5 17 2 46 7 65 11 37 7 47 9 120 19 25 4
47 9 49 11 2 2 11 4 19 4 11 0 13 -26 9 -157z" />
        <path d="M29 10043 c-9 -94 -12 -162 -12 -393 -1 -252 6 -449 18 -511 3 -13 7
-47 9 -76 3 -29 7 -60 10 -70 3 -10 8 -42 11 -72 4 -30 9 -63 12 -75 4 -19 9
-39 27 -131 4 -16 14 -59 22 -95 9 -36 18 -72 19 -80 2 -8 4 -15 5 -15 1 0 3
-10 6 -22 2 -13 26 -89 53 -170 79 -241 168 -445 283 -652 32 -58 58 -106 58
-108 0 -2 5 -9 10 -16 6 -7 38 -55 71 -107 53 -83 185 -264 214 -296 5 -6 26
-30 45 -54 136 -168 379 -407 565 -552 33 -26 67 -54 75 -61 8 -7 31 -24 50
-37 19 -13 37 -27 40 -30 12 -15 304 -202 405 -260 162 -91 428 -218 593 -281
12 -5 32 -13 45 -18 61 -26 241 -85 322 -107 9 -2 73 -20 195 -54 19 -5 64
-16 100 -24 57 -13 83 -18 165 -31 32 -6 96 -16 114 -20 91 -16 273 -33 424
-39 60 -2 111 -7 114 -10 3 -2 5 -142 5 -310 l0 -306 66 56 c37 31 79 65 93
77 14 12 47 40 74 62 27 22 56 47 65 55 8 8 40 35 70 60 30 25 57 47 60 50 3
3 46 39 95 80 50 41 95 79 102 85 6 5 29 24 50 42 21 18 74 63 119 100 44 37
105 88 134 113 30 25 70 59 89 75 20 17 41 35 48 40 6 6 24 20 40 32 16 12 43
35 59 50 17 15 50 44 74 63 24 19 55 45 68 58 14 13 41 35 60 50 19 15 40 32
46 37 6 6 40 35 76 64 84 70 97 87 70 96 -11 3 -20 10 -20 14 0 5 -27 29 -61
56 -33 26 -81 67 -107 91 -26 24 -53 44 -59 44 -7 0 -13 4 -13 8 0 5 -59 58
-132 118 -120 99 -153 127 -198 167 -8 7 -42 35 -75 62 -33 27 -80 67 -105 88
-25 21 -52 44 -60 51 -82 68 -206 172 -210 176 -3 3 -32 27 -65 55 -33 27 -62
52 -65 55 -3 3 -17 15 -32 26 -15 12 -53 43 -84 70 -70 60 -125 107 -188 159
-27 22 -54 46 -62 53 -7 6 -15 12 -18 12 -3 0 -5 -125 -5 -277 0 -153 0 -290
0 -304 l-1 -27 -168 3 c-313 6 -689 36 -872 70 -19 4 -51 8 -70 10 -19 2 -60
9 -90 15 -30 6 -68 14 -85 16 -51 9 -69 13 -95 19 -14 4 -44 11 -66 15 -55 12
-202 49 -239 61 -16 5 -68 21 -115 35 -47 14 -93 29 -102 34 -10 6 -25 10 -33
10 -8 0 -23 4 -33 9 -9 5 -37 17 -62 26 -39 15 -95 37 -165 66 -70 28 -264
125 -339 168 -49 28 -91 51 -93 51 -2 0 -9 4 -16 10 -7 5 -59 41 -117 79 -58
39 -115 79 -127 90 -12 12 -26 21 -30 21 -4 0 -24 15 -44 33 -20 17 -56 48
-79 67 -44 36 -272 261 -301 297 -219 273 -295 389 -409 623 -98 198 -165 371
-204 525 -1 6 -8 29 -14 51 -15 53 -33 137 -47 221 -2 13 -6 26 -8 30 -3 5 -8
33 -11 63 -4 30 -8 66 -11 80 -6 38 -17 170 -17 213 0 20 -2 37 -4 37 -2 0 -4
-3 -5 -7z" />
        <path d="M7807 7354 c-1 -1 -49 -4 -107 -8 -58 -4 -121 -9 -140 -12 -57 -8
-84 -13 -106 -18 -12 -2 -38 -7 -59 -10 -20 -4 -40 -8 -44 -11 -4 -2 -18 -6
-32 -9 -39 -7 -184 -60 -187 -68 -2 -5 -10 -8 -17 -8 -7 0 -53 -26 -101 -58
-208 -137 -320 -329 -350 -602 -15 -135 0 -361 27 -412 5 -10 7 -18 4 -18 -18
0 72 -191 122 -260 37 -51 163 -170 179 -170 8 0 14 -4 14 -8 0 -10 102 -65
166 -90 27 -10 58 -22 69 -27 11 -4 25 -9 30 -10 6 -2 39 -11 75 -20 76 -20
93 -24 140 -30 19 -3 53 -8 75 -11 102 -15 511 -22 605 -11 34 4 140 20 150
22 3 1 32 7 65 15 95 22 154 39 177 51 10 5 23 9 29 9 16 0 148 68 166 85 8 8
18 15 22 15 10 0 131 120 161 159 46 61 113 197 127 256 38 170 35 198 -22
185 -5 -1 -118 -1 -250 -1 -132 1 -247 2 -255 2 -8 -1 -44 -1 -80 0 -36 0 -72
0 -80 0 -68 -2 -66 -1 -89 -56 -45 -108 -132 -189 -238 -221 -76 -24 -255 -20
-333 6 -112 38 -196 112 -240 214 -28 63 -31 77 -34 176 -5 156 31 269 109
346 40 39 115 81 159 90 12 2 35 7 51 11 17 4 84 6 150 6 98 0 132 -4 185 -23
124 -44 169 -90 206 -215 l9 -30 388 0 c253 0 387 3 388 10 2 14 2 15 -5 59
-24 151 -102 302 -216 416 -82 83 -126 111 -275 174 -33 15 -150 50 -150 45 0
-1 -9 3 -20 9 -12 5 -41 13 -65 17 -25 4 -47 8 -51 11 -3 2 -26 6 -50 9 -24 3
-64 8 -89 12 -37 5 -358 11 -363 7z" />
        <path d="M10277 7354 c-1 -1 -49 -4 -107 -8 -58 -3 -116 -8 -130 -10 -14 -2
-47 -7 -75 -11 -58 -7 -251 -53 -274 -65 -9 -4 -59 -28 -111 -53 -52 -25 -120
-67 -151 -94 -141 -121 -249 -325 -274 -518 -6 -47 -7 -294 -1 -345 15 -135
53 -239 133 -365 48 -74 183 -215 208 -215 8 0 15 -4 15 -8 0 -14 197 -101
267 -117 10 -3 36 -9 58 -15 22 -6 56 -12 75 -15 19 -3 46 -7 60 -10 111 -23
468 -40 502 -23 9 4 19 4 22 0 3 -5 17 -7 33 -6 42 4 123 13 173 19 25 3 62 8
84 10 21 3 41 7 45 10 4 2 23 7 42 10 19 3 59 13 89 21 30 9 60 17 65 19 40 9
215 95 215 106 0 4 9 10 19 14 37 11 149 136 208 230 11 17 31 58 63 130 16
36 41 129 47 175 14 111 4 433 -14 463 -2 4 -6 17 -8 30 -7 33 -53 146 -83
197 -51 89 -147 195 -222 246 -68 47 -260 133 -260 118 0 -4 -6 -2 -12 4 -7 5
-26 12 -43 15 -16 3 -37 8 -45 11 -17 6 -65 14 -130 22 -25 3 -56 7 -70 10
-44 10 -404 25 -413 18z m223 -518 c145 -28 277 -169 295 -316 4 -30 9 -58 12
-62 2 -5 1 -8 -4 -8 -4 0 -8 -35 -7 -78 1 -78 -12 -141 -31 -154 -5 -4 -7 -8
-2 -8 12 0 -43 -82 -77 -115 -84 -81 -164 -108 -318 -107 -121 0 -160 8 -239
48 -79 39 -172 160 -185 241 -8 45 -8 235 0 272 28 137 152 256 301 288 45 9
202 8 255 -1z" />
        <path d="M13132 7333 c-4 -1 -32 -4 -62 -6 -30 -3 -66 -8 -80 -11 -14 -3 -35
-8 -46 -10 -29 -6 -118 -44 -174 -74 -53 -29 -119 -81 -177 -139 -23 -24 -43
-43 -45 -43 -2 0 -4 53 -3 117 l0 118 -385 0 -385 0 0 -870 0 -870 388 0 c214
0 393 2 397 5 5 3 10 235 12 515 3 494 4 511 24 555 25 54 62 92 112 116 47
22 171 27 224 8 56 -19 100 -69 115 -127 3 -12 7 -254 8 -537 1 -283 3 -519 4
-525 1 -6 136 -10 383 -10 l383 0 2 70 c2 39 4 270 5 515 3 430 4 447 24 490
24 50 81 113 95 104 5 -3 9 -1 9 4 0 23 184 38 230 18 51 -21 83 -50 103 -95
21 -45 21 -61 22 -568 1 -288 5 -526 9 -530 4 -4 184 -8 400 -8 l393 0 -2 93
c-1 59 3 92 9 92 7 0 8 3 1 8 -14 10 -14 305 0 314 6 5 7 8 0 8 -6 0 -10 58
-10 155 0 97 4 155 10 155 7 0 7 3 0 8 -14 10 -14 305 0 314 6 5 7 8 0 8 -6 0
-10 37 -10 91 0 50 -3 93 -7 95 -5 3 -8 15 -8 27 0 28 -63 155 -96 192 -14 17
-31 37 -38 45 -54 71 -251 157 -401 177 -61 8 -267 7 -315 -2 -19 -3 -42 -7
-50 -8 -9 -2 -21 -6 -28 -11 -6 -4 -12 -5 -12 -1 0 3 -13 -1 -30 -10 -16 -8
-33 -15 -37 -15 -15 1 -133 -63 -133 -71 0 -5 -4 -9 -10 -9 -14 0 -55 -35
-117 -100 -29 -30 -54 -52 -56 -50 -2 3 -14 21 -27 40 -23 33 -72 84 -118 121
-57 48 -180 102 -262 116 -32 5 -221 10 -238 6z" />
    </g>
</svg>