<svg xmlns="http://www.w3.org/2000/svg" width="258" height="258" viewBox="0 0 258 258"><g transform="translate(-1003 -495)"><rect width="258" height="258" transform="translate(1003 495)" fill="none"/><g transform="translate(1006 569)"><path d="M47.249,17.834a22,22,0,0,1,10.115,1.947,9.273,9.273,0,0,1,5.28,7.891H92.086Q89.836,12.59,78.27,6.07,67.592,0,46.918,0,.843-.016.832,33.595.821,67.548,46.9,67.564q18.654,0,28.769-4.677,14.5-6.855,16.415-24.23H62.647q-2.477,10.4-15.625,10.4a16.989,16.989,0,0,1-12.473-4.236,15.506,15.506,0,0,1-4.266-11.548q0-15.435,16.973-15.428" transform="translate(1.078)" fill-rule="evenodd"/><path d="M103.851,38.15c0,8.552-8.8,13.293-22,13.288-6.936,0-11.771-2.3-11.768-6.92,0-3.57,3.9-5.577,8.977-6.02,12.083-1.035,21.81-2.358,24.795-3.026ZM129.626,24.8q0-13.493-9.112-19.019T89.812.251q-22.6,0-31.772,4.227Q48.416,8.936,45.952,21.2H72.37c1.045-4.61,6.819-7.45,15.173-7.448,8.651,0,15.5,2.514,15.5,6.454,0,3.122-3.262,5.016-9.541,5.016L69.891,26.334q-28.64,1.327-28.645,19.172,0,11.151,8.265,16.174,7.383,4.461,22.373,4.47c18.261,0,26.631-2.817,32.754-8.465a28.192,28.192,0,0,0,1.006,6.022h26.54a16.831,16.831,0,0,1-2.569-9.482Z" transform="translate(53.447 0.325)" fill-rule="evenodd"/><path d="M134.951.239A31.506,31.506,0,0,0,108.941,13.8h-.216V1.927H83.54l-.018,61.861h26.046V40.6c0-11.084,7.51-18.789,20.731-18.784a57.689,57.689,0,0,1,13.472,2.314V.917a56.708,56.708,0,0,0-8.837-.689" transform="translate(108.229 0.295)" fill-rule="evenodd"/><path d="M76.428,43.963H65.155a3.7,3.7,0,0,0-2.023-3.143,8.142,8.142,0,0,0-3.873-.774q-6.5,0-6.5,6.148a5.776,5.776,0,0,0,6.415,6.284,5.317,5.317,0,0,0,5.983-4.132h11.27A11.268,11.268,0,0,1,70.144,58a26.046,26.046,0,0,1-11.02,1.867q-17.65,0-17.648-13.525,0-13.389,17.648-13.387a24.022,24.022,0,0,1,12.023,2.4,11.149,11.149,0,0,1,5.28,8.607" transform="translate(53.745 42.645)" fill-rule="evenodd"/><path d="M68.348,46.357a5.416,5.416,0,0,0,6.155,6.1,5.416,5.416,0,0,0,6.155-6.1A5.4,5.4,0,0,0,74.5,40.3a5.4,5.4,0,0,0-6.155,6.056m-11.277,0a12.074,12.074,0,0,1,4.2-10.177q4.2-3.255,13.235-3.255t13.231,3.255a12.076,12.076,0,0,1,4.2,10.177,12.143,12.143,0,0,1-4.2,10.2q-4.2,3.278-13.238,3.278T61.26,56.557a12.14,12.14,0,0,1-4.2-10.2" transform="translate(73.892 42.664)" fill-rule="evenodd"/><path d="M73.385,58.683V33.773h11.1v3.416h.092a11.086,11.086,0,0,1,9.353-4.1,8.586,8.586,0,0,1,8.3,4.144,10.372,10.372,0,0,1,9.218-4.144,11.309,11.309,0,0,1,7.016,1.958,7.53,7.53,0,0,1,2.888,6.467V58.683H109.884V44.612q0-3.322-3.072-3.324-3.9,0-3.9,4.188V58.683H91.818V44.612q0-3.322-3.072-3.324-3.9,0-3.9,4.188V58.683Z" transform="translate(95.093 42.816)" fill-rule="evenodd"/><path d="M81.272,70.553,58.617,51.523v8.768C-1.311,60.442.358,15.683.358,15.683c-4.406,44.452,32.876,64.926,58.263,64.96v8.922Z" transform="translate(0 20.322)" fill-rule="evenodd"/></g></g></svg>